<svg width="24" height="24" viewBox="0 0 24 24" fill="none" xmlns="http://www.w3.org/2000/svg">
<path d="M22 12C22 17.5228 17.5228 22 12 22C6.47715 22 2 17.5228 2 12C2 6.47715 6.47715 2 12 2C17.5228 2 22 6.47715 22 12Z" fill="white"/>
<circle cx="11.8947" cy="11.8947" r="7.89474" fill="white"/>
<path d="M8.31849 13.9229H9.9054C9.95618 14.3418 10.172 14.6803 10.5529 14.9385C10.9337 15.1924 11.4056 15.3193 11.9684 15.3193C12.5185 15.3193 12.9671 15.1966 13.3141 14.9512C13.6653 14.7057 13.8409 14.3926 13.8409 14.0117C13.8409 13.6816 13.714 13.415 13.4601 13.2119C13.2062 13.0046 12.7915 12.8332 12.2159 12.6978L11.0289 12.4185C10.1868 12.2238 9.56051 11.9212 9.15003 11.5107C8.74378 11.1003 8.54066 10.5671 8.54066 9.91113C8.54066 9.10286 8.85804 8.44694 9.4928 7.94336C10.1276 7.43978 10.9464 7.18799 11.9493 7.18799C12.9565 7.18799 13.7669 7.43766 14.3805 7.93701C14.9983 8.43213 15.3178 9.08382 15.339 9.89209H13.7775C13.7394 9.46468 13.5553 9.13037 13.2252 8.88916C12.8951 8.64372 12.4656 8.521 11.9367 8.521C11.4204 8.521 11.0014 8.63737 10.6798 8.87012C10.3624 9.10286 10.2037 9.40967 10.2037 9.79053C10.2037 10.0952 10.3265 10.3428 10.5719 10.5332C10.8216 10.7236 11.2278 10.8866 11.7907 11.022L12.8444 11.2632C13.7711 11.4748 14.444 11.7837 14.8629 12.1899C15.2819 12.5962 15.4913 13.14 15.4913 13.8213C15.4913 14.6888 15.1655 15.3786 14.5138 15.8906C13.8663 16.3984 12.9882 16.6523 11.8795 16.6523C10.8216 16.6523 9.97099 16.409 9.32777 15.9224C8.68877 15.4315 8.35234 14.765 8.31849 13.9229Z" fill="#111111"/>
</svg>
