<?xml version="1.0" standalone="no"?>
<!DOCTYPE svg PUBLIC "-//W3C//DTD SVG 20010904//EN"
 "http://www.w3.org/TR/2001/REC-SVG-20010904/DTD/svg10.dtd">
<svg version="1.0" xmlns="http://www.w3.org/2000/svg"
 width="152.000000pt" height="152.000000pt" viewBox="0 0 152.000000 152.000000"
 preserveAspectRatio="xMidYMid meet">
<metadata>
Created by potrace 1.14, written by Peter Selinger 2001-2017
</metadata>
<g transform="translate(0.000000,152.000000) scale(0.100000,-0.100000)"
fill="#000000" stroke="none">
<path d="M0 760 l0 -760 760 0 760 0 0 760 0 760 -760 0 -760 0 0 -760z m436
537 l24 -28 0 -373 c0 -234 -4 -384 -10 -403 -6 -16 -34 -50 -63 -75 -29 -25
-96 -86 -149 -136 -98 -92 -121 -105 -132 -76 -3 9 -6 251 -6 538 0 643 -20
586 198 583 111 -2 114 -3 138 -30z m612 -44 c2 -54 0 -73 -10 -74 -7 -1 -74
-1 -149 1 -159 3 -182 -4 -177 -53 3 -31 5 -32 58 -37 l55 -5 0 -65 0 -65 -55
-5 -55 -5 -3 -40 c-2 -22 -7 -44 -12 -49 -10 -10 -146 39 -172 62 -16 13 -18
36 -18 202 0 133 3 189 12 198 9 9 77 12 268 10 l255 -3 3 -72z m348 46 c31
-34 34 -229 3 -229 -5 0 -37 22 -70 49 -60 48 -112 71 -163 71 -55 0 -86 71
-49 112 14 16 33 18 138 18 111 0 124 -2 141 -21z m-173 -183 c108 -32 185
-142 195 -275 12 -176 -90 -280 -294 -298 l-74 -6 0 -123 0 -124 -115 0 -115
0 0 250 c0 263 7 324 46 401 49 99 116 152 218 174 80 17 85 17 139 1z m-582
-307 c30 -12 66 -35 82 -51 l27 -28 0 -247 c0 -215 -2 -249 -17 -265 -15 -16
-35 -18 -230 -18 -158 0 -213 3 -213 12 0 7 47 59 104 117 78 80 107 116 115
146 6 22 11 108 11 191 0 83 3 154 7 157 12 13 61 7 114 -14z m775 -253 c3
-13 4 -89 2 -169 -4 -204 24 -187 -307 -187 -146 0 -272 4 -280 9 -27 18 26
31 124 31 93 0 98 1 126 29 27 27 29 35 29 106 0 95 17 116 105 133 33 7 83
25 110 42 62 36 83 37 91 6z"/>
<path d="M237 1203 c-10 -10 -8 -315 2 -309 4 3 34 51 65 106 44 79 56 110 56
143 0 24 -5 48 -12 55 -13 13 -100 17 -111 5z"/>
<path d="M297 769 c-88 -139 -88 -140 -85 -230 4 -103 16 -110 84 -46 l47 44
-2 138 c-1 77 -4 141 -6 143 -2 2 -19 -20 -38 -49z"/>
<path d="M1091 874 c-25 -20 -31 -34 -31 -64 0 -33 4 -39 30 -48 61 -22 140
22 140 76 0 63 -82 84 -139 36z"/>
</g>
</svg>
